name rise49.8558peak67.6521fall70.3087.mot
datacolumns 19
datarows 33
range 16.46660100000000 16.51994900000000
endheader
time	ground_force1_vx	ground_force1_vy	ground_force1_vz	ground_force1_px	ground_force1_py	ground_force1_pz	ground_force2_vx	ground_force2_vy	ground_force2_vz	ground_force2_px	ground_force2_py	ground_force2_pz	ground_torque1_x	ground_torque1_y	ground_torque1_z	ground_torque2_x	ground_torque2_y	ground_torque2_z	
16.46660100000000	60.33222100000000	757.18710099999998	56.12807400000000	0.37921100000000	0.00000000000000	0.11675300000000	0.00000000000000	0.00000000000000	0.00000000000000	0.00000000000000	0.00000000000000	0.00000000000000	0.00000000000000	28.06134200000000	0.00000000000000	0.00000000000000	0.00000000000000	0.00000000000000	
16.46827600000000	59.79605600000000	761.00097400000004	56.48079100000000	0.37803000000000	0.00000000000000	0.11678700000000	0.00000000000000	0.00000000000000	0.00000000000000	0.00000000000000	0.00000000000000	0.00000000000000	0.00000000000000	28.28826400000000	0.00000000000000	0.00000000000000	0.00000000000000	0.00000000000000	
16.46993900000000	59.25474300000000	764.68702099999996	56.83517300000000	0.37687200000000	0.00000000000000	0.11682100000000	0.00000000000000	0.00000000000000	0.00000000000000	0.00000000000000	0.00000000000000	0.00000000000000	0.00000000000000	28.51811500000000	0.00000000000000	0.00000000000000	0.00000000000000	0.00000000000000	
16.47160900000000	58.70865400000000	768.24134400000003	57.19036100000000	0.37573700000000	0.00000000000000	0.11685400000000	0.00000000000000	0.00000000000000	0.00000000000000	0.00000000000000	0.00000000000000	0.00000000000000	0.00000000000000	28.75029900000000	0.00000000000000	0.00000000000000	0.00000000000000	0.00000000000000	
16.47326700000000	58.15811500000000	771.66015000000004	57.54542100000000	0.37462400000000	0.00000000000000	0.11688700000000	0.00000000000000	0.00000000000000	0.00000000000000	0.00000000000000	0.00000000000000	0.00000000000000	0.00000000000000	28.98417100000000	0.00000000000000	0.00000000000000	0.00000000000000	0.00000000000000	
16.47494000000000	57.60340900000000	774.93977099999995	57.89934600000000	0.37353300000000	0.00000000000000	0.11692000000000	0.00000000000000	0.00000000000000	0.00000000000000	0.00000000000000	0.00000000000000	0.00000000000000	0.00000000000000	29.21903600000000	0.00000000000000	0.00000000000000	0.00000000000000	0.00000000000000	
16.47660400000000	57.04478000000000	778.07668300000000	58.25106500000000	0.37246500000000	0.00000000000000	0.11695300000000	0.00000000000000	0.00000000000000	0.00000000000000	0.00000000000000	0.00000000000000	0.00000000000000	0.00000000000000	29.45415900000000	0.00000000000000	0.00000000000000	0.00000000000000	0.00000000000000	
16.47827300000000	56.48243400000000	781.06752600000004	58.59945100000000	0.37141800000000	0.00000000000000	0.11698500000000	0.00000000000000	0.00000000000000	0.00000000000000	0.00000000000000	0.00000000000000	0.00000000000000	0.00000000000000	29.68876900000000	0.00000000000000	0.00000000000000	0.00000000000000	0.00000000000000	
16.47993600000000	55.91654300000000	783.90911700000004	58.94332800000000	0.37039100000000	0.00000000000000	0.11701600000000	0.00000000000000	0.00000000000000	0.00000000000000	0.00000000000000	0.00000000000000	0.00000000000000	0.00000000000000	29.92206000000000	0.00000000000000	0.00000000000000	0.00000000000000	0.00000000000000	
16.48160200000000	55.34724500000000	786.59847000000002	59.28147600000000	0.36938500000000	0.00000000000000	0.11704700000000	0.00000000000000	0.00000000000000	0.00000000000000	0.00000000000000	0.00000000000000	0.00000000000000	0.00000000000000	30.15319900000000	0.00000000000000	0.00000000000000	0.00000000000000	0.00000000000000	
16.48328400000000	54.77465100000000	789.13281400000005	59.61264300000000	0.36839800000000	0.00000000000000	0.11707600000000	0.00000000000000	0.00000000000000	0.00000000000000	0.00000000000000	0.00000000000000	0.00000000000000	0.00000000000000	30.38133100000000	0.00000000000000	0.00000000000000	0.00000000000000	0.00000000000000	
16.48493500000000	54.19884700000000	791.50960399999997	59.93555100000000	0.36743000000000	0.00000000000000	0.11710500000000	0.00000000000000	0.00000000000000	0.00000000000000	0.00000000000000	0.00000000000000	0.00000000000000	0.00000000000000	30.60558300000000	0.00000000000000	0.00000000000000	0.00000000000000	0.00000000000000	
16.48660200000000	53.61989500000000	793.72653700000001	60.24890500000000	0.36648000000000	0.00000000000000	0.11713200000000	0.00000000000000	0.00000000000000	0.00000000000000	0.00000000000000	0.00000000000000	0.00000000000000	0.00000000000000	30.82506900000000	0.00000000000000	0.00000000000000	0.00000000000000	0.00000000000000	
16.48826800000000	53.03783900000000	795.78156700000000	60.55140100000000	0.36554600000000	0.00000000000000	0.11715900000000	0.00000000000000	0.00000000000000	0.00000000000000	0.00000000000000	0.00000000000000	0.00000000000000	0.00000000000000	31.03889800000000	0.00000000000000	0.00000000000000	0.00000000000000	0.00000000000000	
16.48993700000000	52.45270400000000	797.67291599999999	60.84173500000000	0.36462900000000	0.00000000000000	0.11718400000000	0.00000000000000	0.00000000000000	0.00000000000000	0.00000000000000	0.00000000000000	0.00000000000000	0.00000000000000	31.24617500000000	0.00000000000000	0.00000000000000	0.00000000000000	0.00000000000000	
16.49160900000000	51.86450600000000	799.39908400000002	61.11860900000000	0.36372600000000	0.00000000000000	0.11720800000000	0.00000000000000	0.00000000000000	0.00000000000000	0.00000000000000	0.00000000000000	0.00000000000000	0.00000000000000	31.44601100000000	0.00000000000000	0.00000000000000	0.00000000000000	0.00000000000000	
16.49326800000000	51.27324900000000	800.95886199999995	61.38074200000000	0.36283600000000	0.00000000000000	0.11723100000000	0.00000000000000	0.00000000000000	0.00000000000000	0.00000000000000	0.00000000000000	0.00000000000000	0.00000000000000	31.63752300000000	0.00000000000000	0.00000000000000	0.00000000000000	0.00000000000000	
16.49494000000000	50.67893100000000	802.35133800000006	61.62687900000000	0.36195900000000	0.00000000000000	0.11725200000000	0.00000000000000	0.00000000000000	0.00000000000000	0.00000000000000	0.00000000000000	0.00000000000000	0.00000000000000	31.81984300000000	0.00000000000000	0.00000000000000	0.00000000000000	0.00000000000000	
16.49660300000000	50.08154600000000	803.57590600000003	61.85579300000000	0.36109200000000	0.00000000000000	0.11727100000000	0.00000000000000	0.00000000000000	0.00000000000000	0.00000000000000	0.00000000000000	0.00000000000000	0.00000000000000	31.99212100000000	0.00000000000000	0.00000000000000	0.00000000000000	0.00000000000000	
16.49826900000000	49.48108800000000	804.63227199999994	62.06630000000000	0.36023600000000	0.00000000000000	0.11728900000000	0.00000000000000	0.00000000000000	0.00000000000000	0.00000000000000	0.00000000000000	0.00000000000000	0.00000000000000	32.15353100000000	0.00000000000000	0.00000000000000	0.00000000000000	0.00000000000000	
16.49993400000000	48.87755200000000	805.52045999999996	62.25726200000000	0.35938800000000	0.00000000000000	0.11730600000000	0.00000000000000	0.00000000000000	0.00000000000000	0.00000000000000	0.00000000000000	0.00000000000000	0.00000000000000	32.30327600000000	0.00000000000000	0.00000000000000	0.00000000000000	0.00000000000000	
16.50160100000000	48.27093900000000	806.24081200000001	62.42759400000000	0.35854700000000	0.00000000000000	0.11732000000000	0.00000000000000	0.00000000000000	0.00000000000000	0.00000000000000	0.00000000000000	0.00000000000000	0.00000000000000	32.44059100000000	0.00000000000000	0.00000000000000	0.00000000000000	0.00000000000000	
16.50327300000000	47.66125600000000	806.79399500000000	62.57627500000000	0.35771100000000	0.00000000000000	0.11733300000000	0.00000000000000	0.00000000000000	0.00000000000000	0.00000000000000	0.00000000000000	0.00000000000000	0.00000000000000	32.56474800000000	0.00000000000000	0.00000000000000	0.00000000000000	0.00000000000000	
16.50494100000000	47.04851900000000	807.18100000000004	62.70234700000000	0.35687900000000	0.00000000000000	0.11734400000000	0.00000000000000	0.00000000000000	0.00000000000000	0.00000000000000	0.00000000000000	0.00000000000000	0.00000000000000	32.67506100000000	0.00000000000000	0.00000000000000	0.00000000000000	0.00000000000000	
16.50661000000000	46.43275700000000	807.40313900000001	62.80492800000000	0.35605000000000	0.00000000000000	0.11735300000000	0.00000000000000	0.00000000000000	0.00000000000000	0.00000000000000	0.00000000000000	0.00000000000000	0.00000000000000	32.77089000000000	0.00000000000000	0.00000000000000	0.00000000000000	0.00000000000000	
16.50826900000000	45.81401300000000	807.46204899999998	62.88321500000000	0.35522200000000	0.00000000000000	0.11736100000000	0.00000000000000	0.00000000000000	0.00000000000000	0.00000000000000	0.00000000000000	0.00000000000000	0.00000000000000	32.85164200000000	0.00000000000000	0.00000000000000	0.00000000000000	0.00000000000000	
16.50995000000000	45.19234100000000	807.35968300000002	62.93648700000000	0.35439400000000	0.00000000000000	0.11736600000000	0.00000000000000	0.00000000000000	0.00000000000000	0.00000000000000	0.00000000000000	0.00000000000000	0.00000000000000	32.91677900000000	0.00000000000000	0.00000000000000	0.00000000000000	0.00000000000000	
16.51161300000000	44.56781700000000	807.09830899999997	62.96411200000000	0.35356300000000	0.00000000000000	0.11737000000000	0.00000000000000	0.00000000000000	0.00000000000000	0.00000000000000	0.00000000000000	0.00000000000000	0.00000000000000	32.96581700000000	0.00000000000000	0.00000000000000	0.00000000000000	0.00000000000000	
16.51326800000000	43.94053200000000	806.68050600000004	62.96554900000000	0.35272900000000	0.00000000000000	0.11737200000000	0.00000000000000	0.00000000000000	0.00000000000000	0.00000000000000	0.00000000000000	0.00000000000000	0.00000000000000	32.99833100000000	0.00000000000000	0.00000000000000	0.00000000000000	0.00000000000000	
16.51493800000000	43.31059500000000	806.10915199999999	62.94035300000000	0.35189000000000	0.00000000000000	0.11737200000000	0.00000000000000	0.00000000000000	0.00000000000000	0.00000000000000	0.00000000000000	0.00000000000000	0.00000000000000	33.01395600000000	0.00000000000000	0.00000000000000	0.00000000000000	0.00000000000000	
16.51661300000000	42.67813600000000	805.38742100000002	62.88818000000000	0.35104500000000	0.00000000000000	0.11737000000000	0.00000000000000	0.00000000000000	0.00000000000000	0.00000000000000	0.00000000000000	0.00000000000000	0.00000000000000	33.01239200000000	0.00000000000000	0.00000000000000	0.00000000000000	0.00000000000000	
16.51827200000000	42.04330700000000	804.51877200000001	62.80878100000000	0.35019100000000	0.00000000000000	0.11736600000000	0.00000000000000	0.00000000000000	0.00000000000000	0.00000000000000	0.00000000000000	0.00000000000000	0.00000000000000	32.99340100000000	0.00000000000000	0.00000000000000	0.00000000000000	0.00000000000000	
16.51994900000000	41.40627800000000	803.50693999999999	62.70201500000000	0.34932700000000	0.00000000000000	0.11736000000000	0.00000000000000	0.00000000000000	0.00000000000000	0.00000000000000	0.00000000000000	0.00000000000000	0.00000000000000	32.95681300000000	0.00000000000000	0.00000000000000	0.00000000000000	0.00000000000000	
